<?xml version="1.0" standalone="no"?>
<!DOCTYPE svg PUBLIC "-//W3C//DTD SVG 20010904//EN"
 "http://www.w3.org/TR/2001/REC-SVG-20010904/DTD/svg10.dtd">
<svg version="1.0" xmlns="http://www.w3.org/2000/svg"
 width="512.000000pt" height="512.000000pt" viewBox="0 0 512.000000 512.000000"
 preserveAspectRatio="xMidYMid meet">
<metadata>
Created by potrace 1.16, written by Peter Selinger 2001-2019
</metadata>
<g transform="translate(0.000000,512.000000) scale(0.100000,-0.100000)"
fill="#000000" stroke="none">
<path d="M1737 4045 c-347 -65 -658 -289 -830 -597 -85 -152 -147 -371 -147
-520 l0 -75 -57 -12 c-327 -72 -605 -346 -683 -671 -28 -117 -28 -303 0 -419
53 -219 197 -422 389 -546 95 -61 166 -92 280 -121 l94 -24 1777 0 1777 0 94
24 c119 30 191 62 294 131 175 116 314 309 371 515 26 92 26 367 1 460 -88
318 -368 586 -682 651 l-60 12 -22 90 c-60 242 -239 462 -469 576 -245 122
-555 124 -797 6 -42 -21 -79 -36 -80 -34 -2 2 -23 33 -47 69 -62 92 -210 236
-313 305 -106 70 -238 128 -367 163 -81 21 -121 25 -270 28 -124 2 -198 -1
-253 -11z"/>
</g>
</svg>
