<?xml version="1.0" standalone="no"?>
<!DOCTYPE svg PUBLIC "-//W3C//DTD SVG 20010904//EN"
 "http://www.w3.org/TR/2001/REC-SVG-20010904/DTD/svg10.dtd">
<svg version="1.0" xmlns="http://www.w3.org/2000/svg"
 width="512.000000pt" height="512.000000pt" viewBox="0 0 512.000000 512.000000"
 preserveAspectRatio="xMidYMid meet">
<metadata>
Created by potrace 1.16, written by Peter Selinger 2001-2019
</metadata>
<g transform="translate(0.000000,512.000000) scale(0.100000,-0.100000)"
fill="#000000" stroke="none">
<path d="M2883 5108 c-31 -15 -389 -517 -429 -603 -101 -213 -50 -465 128
-632 239 -224 640 -178 821 94 110 166 127 385 42 553 -32 63 -367 536 -406
573 -25 23 -38 27 -82 26 -28 0 -62 -5 -74 -11z m246 -411 c89 -125 172 -249
184 -275 18 -38 22 -65 22 -142 0 -86 -3 -101 -32 -162 -40 -85 -106 -151
-191 -191 -61 -29 -76 -32 -162 -32 -82 0 -103 4 -152 27 -118 55 -218 188
-233 312 -8 61 8 153 36 209 11 20 83 126 160 235 187 261 190 265 199 255 4
-4 80 -110 169 -236z"/>
<path d="M1790 3879 c-19 -6 -51 -23 -71 -37 -44 -32 -1086 -1482 -1165 -1621
-200 -353 -242 -787 -117 -1186 136 -434 491 -804 914 -953 178 -63 271 -77
509 -77 240 0 304 9 488 71 480 159 846 562 971 1069 l10 40 208 0 c223 0 274
7 425 61 282 101 532 322 666 589 45 90 90 227 108 324 20 115 20 323 0 433
-82 436 -396 792 -816 926 -109 35 -179 47 -215 38 -30 -8 -58 -57 -49 -90 10
-40 35 -54 136 -80 174 -44 310 -112 432 -215 367 -311 474 -826 261 -1256
-253 -511 -872 -722 -1384 -473 -301 148 -518 440 -571 770 -18 110 -8 321 20
423 26 96 92 239 150 326 56 83 197 223 280 277 119 78 328 162 405 162 12 0
34 9 49 21 34 27 37 88 5 120 -19 19 -29 21 -85 16 -125 -12 -327 -92 -469
-185 -78 -52 -238 -201 -280 -262 l-28 -40 -73 99 c-40 55 -82 105 -94 111
-28 15 -76 4 -95 -23 -31 -44 -20 -75 76 -210 l91 -127 -31 -74 c-63 -151 -82
-246 -88 -426 -5 -171 7 -279 43 -393 9 -27 13 -51 10 -54 -3 -3 -26 0 -51 7
-32 9 -67 32 -111 71 -59 54 -68 59 -110 59 -53 0 -95 -19 -117 -54 -9 -14
-38 -38 -64 -53 -67 -39 -149 -39 -216 0 -26 15 -55 39 -64 53 -22 35 -64 54
-117 54 -41 0 -51 -5 -110 -58 -121 -110 -220 -109 -337 3 -53 51 -61 55 -106
55 -52 0 -104 -25 -123 -59 -14 -28 -87 -69 -135 -76 -45 -8 -125 10 -125 27
0 19 71 151 125 233 139 207 1043 1461 1067 1478 22 16 33 18 60 11 26 -8 50
-34 125 -139 102 -143 133 -175 167 -175 41 0 76 37 76 79 0 31 -17 60 -107
186 -125 174 -163 204 -260 211 -32 2 -74 -1 -93 -7z m-737 -1984 c63 -54 137
-79 237 -79 101 0 174 25 238 79 l41 36 44 -34 c79 -60 141 -81 242 -81 77 -1
98 3 148 26 32 15 76 42 98 59 l39 31 42 -36 c58 -50 137 -78 232 -82 l79 -3
34 -57 c132 -220 360 -411 596 -499 33 -12 47 -23 47 -36 0 -35 -62 -214 -105
-304 -189 -392 -548 -666 -970 -740 -105 -18 -331 -21 -431 -5 -374 58 -698
264 -905 572 -208 312 -278 655 -208 1019 16 80 16 80 79 62 110 -29 255 4
345 81 17 14 32 25 33 26 2 0 22 -16 45 -35z"/>
<path d="M3786 2988 c-37 -33 -566 -1121 -566 -1164 0 -61 82 -97 128 -56 11
9 142 268 291 574 197 405 271 566 271 592 0 25 -7 40 -26 55 -34 27 -67 27
-98 -1z"/>
<path d="M3091 2883 c-85 -42 -139 -130 -140 -229 -3 -175 150 -300 324 -264
189 39 268 274 145 430 -71 90 -219 118 -329 63z m192 -157 c47 -43 48 -106 2
-151 -48 -49 -120 -40 -156 19 -31 51 -20 104 31 143 27 22 94 16 123 -11z"/>
<path d="M3855 2370 c-58 -10 -88 -25 -130 -62 -53 -46 -85 -118 -85 -192 0
-80 17 -129 62 -181 126 -143 363 -110 440 62 88 198 -76 411 -287 373z m105
-179 c54 -38 61 -102 17 -149 -32 -35 -64 -45 -103 -32 -94 31 -100 157 -10
196 35 15 59 11 96 -15z"/>
</g>
</svg>
