<?xml version="1.0" standalone="no"?>
<!DOCTYPE svg PUBLIC "-//W3C//DTD SVG 20010904//EN"
 "http://www.w3.org/TR/2001/REC-SVG-20010904/DTD/svg10.dtd">
<svg version="1.0" xmlns="http://www.w3.org/2000/svg"
 width="512.000000pt" height="512.000000pt" viewBox="0 0 512.000000 512.000000"
 preserveAspectRatio="xMidYMid meet">
<metadata>
Created by potrace 1.16, written by Peter Selinger 2001-2019
</metadata>
<g transform="translate(0.000000,512.000000) scale(0.100000,-0.100000)"
fill="#000000" stroke="none">
<path d="M2355 4854 c-725 -108 -1259 -602 -1417 -1311 -19 -85 -22 -129 -23
-328 0 -204 3 -242 23 -339 110 -514 448 -943 915 -1161 l107 -50 0 -230 c0
-208 2 -233 19 -259 30 -46 70 -66 129 -66 l52 0 0 -202 c0 -182 2 -206 19
-232 30 -46 70 -66 129 -66 l52 0 0 -127 c0 -141 8 -166 66 -204 42 -28 226
-28 268 0 58 38 66 63 66 204 l0 127 53 0 c58 0 98 20 128 66 17 26 19 50 19
232 l0 202 53 0 c58 0 98 20 128 66 17 26 19 51 19 259 l0 230 107 50 c466
217 799 641 915 1160 20 88 22 129 22 335 0 206 -2 247 -22 333 -147 660 -628
1142 -1284 1288 -74 17 -136 21 -303 24 -115 2 -223 1 -240 -1z m413 -115
c109 -13 249 -50 359 -94 479 -192 831 -609 944 -1118 32 -144 37 -416 11
-572 -83 -486 -394 -904 -837 -1125 -224 -112 -431 -161 -680 -161 -210 0
-375 30 -560 102 -483 188 -837 602 -957 1118 -31 137 -36 421 -10 576 27 157
69 282 142 430 152 304 391 543 695 695 285 142 566 189 893 149z m-668 -3119
c19 -6 78 -20 130 -32 120 -26 413 -36 546 -18 85 11 229 41 267 56 17 6 18
-4 15 -189 -2 -144 -6 -200 -16 -209 -9 -9 -50 -14 -122 -16 l-110 -4 0 89 c0
96 -7 113 -50 113 -43 0 -50 -17 -50 -112 l0 -88 -150 0 -150 0 0 88 c0 95 -7
112 -50 112 -43 0 -50 -17 -50 -113 l0 -89 -110 4 c-72 2 -113 7 -122 16 -10
9 -14 65 -16 207 -2 107 -2 195 0 195 2 0 19 -5 38 -10z m758 -695 c-2 -134
-7 -188 -16 -197 -19 -19 -545 -19 -564 0 -9 9 -14 63 -16 197 l-3 185 301 0
301 0 -3 -185z m-200 -425 c-2 -72 -7 -113 -16 -122 -8 -8 -39 -13 -82 -13
-43 0 -74 5 -82 13 -9 9 -14 50 -16 122 l-4 110 102 0 102 0 -4 -110z"/>
<path d="M2326 4494 c-244 -44 -479 -163 -662 -336 -205 -195 -341 -448 -390
-728 -25 -145 -15 -400 20 -538 44 -167 109 -308 204 -442 58 -81 197 -227
235 -247 63 -32 106 47 52 97 l-25 23 55 58 c56 59 70 100 43 127 -27 27 -68
13 -127 -43 l-58 -55 -37 45 c-59 71 -141 208 -176 292 -41 97 -79 247 -87
341 l-6 72 85 0 c91 0 108 8 108 50 0 42 -17 50 -108 50 l-85 0 7 78 c17 209
130 473 275 642 l30 35 58 -57 c59 -59 95 -72 121 -46 27 27 13 68 -44 128
l-56 59 89 66 c181 134 448 235 626 235 l37 0 0 -83 c0 -90 8 -107 50 -107 42
0 50 17 50 107 l0 83 38 0 c176 0 446 -102 625 -235 l89 -66 -56 -59 c-57 -60
-71 -101 -44 -128 27 -27 68 -13 128 44 l58 56 56 -75 c76 -101 139 -213 175
-314 35 -94 71 -261 71 -322 l0 -41 -83 0 c-90 0 -107 -8 -107 -50 0 -42 17
-50 108 -50 l85 0 -6 -72 c-8 -94 -46 -244 -87 -341 -35 -84 -117 -221 -176
-292 l-37 -45 -58 55 c-59 56 -100 70 -127 43 -26 -26 -13 -62 45 -120 l57
-58 -27 -28 c-46 -48 -32 -102 26 -102 23 0 46 16 104 73 176 170 295 374 358
618 36 139 46 393 21 539 -45 256 -161 488 -338 676 -193 203 -448 341 -722
389 -111 19 -352 19 -460 -1z"/>
<path d="M2442 3435 c-87 -44 -132 -121 -132 -225 0 -33 7 -77 15 -97 l15 -37
-140 -141 c-117 -118 -140 -146 -140 -171 0 -38 16 -54 54 -54 25 0 53 23 171
140 l141 140 39 -16 c28 -11 60 -15 111 -12 90 4 154 40 199 112 27 45 30 57
30 136 0 79 -3 91 -30 136 -46 74 -109 108 -204 112 -66 3 -83 0 -129 -23z
m192 -104 c43 -29 66 -70 66 -121 0 -51 -23 -92 -66 -121 -18 -11 -47 -19 -74
-19 -80 0 -140 60 -140 140 0 80 60 140 140 140 27 0 56 -8 74 -19z"/>
</g>
</svg>
