<?xml version="1.0" standalone="no"?>
<!DOCTYPE svg PUBLIC "-//W3C//DTD SVG 20010904//EN"
 "http://www.w3.org/TR/2001/REC-SVG-20010904/DTD/svg10.dtd">
<svg version="1.0" xmlns="http://www.w3.org/2000/svg"
 width="512.000000pt" height="512.000000pt" viewBox="0 0 512.000000 512.000000"
 preserveAspectRatio="xMidYMid meet">
<metadata>
Created by potrace 1.16, written by Peter Selinger 2001-2019
</metadata>
<g transform="translate(0.000000,512.000000) scale(0.100000,-0.100000)"
fill="#000000" stroke="none">
<path d="M4421 5079 c-91 -49 -193 -115 -287 -184 l-71 -53 -59 21 c-48 18
-81 21 -184 21 -110 0 -134 -3 -205 -28 -255 -88 -480 -310 -641 -631 -110
-220 -169 -436 -181 -660 -5 -110 -4 -125 16 -170 53 -120 128 -151 322 -135
151 13 249 34 394 82 205 68 428 191 563 312 226 202 333 405 335 636 1 140
-29 229 -112 340 -23 30 -41 57 -41 60 0 7 174 120 275 178 62 36 84 56 99 85
24 50 15 101 -26 139 -46 43 -102 39 -197 -13z m-682 -536 c-187 -193 -368
-438 -451 -609 -36 -75 -39 -85 -29 -121 17 -61 52 -88 116 -88 68 0 80 11
156 144 111 196 280 412 452 578 l90 87 33 -39 c133 -152 84 -393 -120 -600
-207 -210 -563 -370 -869 -392 l-90 -6 7 74 c36 364 218 740 452 933 107 88
230 142 328 145 27 1 22 -6 -75 -106z"/>
<path d="M4203 3246 c-162 -31 -286 -88 -385 -176 -87 -77 -116 -155 -83 -219
26 -50 113 -76 161 -48 11 7 40 34 64 60 73 80 153 118 300 143 158 26 304 13
402 -37 57 -29 130 -100 160 -156 40 -75 62 -180 55 -272 -14 -209 -178 -425
-412 -543 -81 -41 -213 -84 -320 -104 -83 -16 -147 -19 -375 -19 -354 1 -526
20 -880 101 -403 92 -503 109 -700 120 -224 12 -449 -25 -735 -121 -440 -147
-835 -383 -1126 -674 -172 -172 -329 -403 -329 -484 0 -74 45 -120 116 -120
58 0 84 19 134 105 101 170 253 345 415 475 374 300 914 533 1326 572 190 18
379 -4 729 -85 452 -105 687 -135 1067 -135 225 -1 337 9 483 42 422 97 723
358 826 720 24 84 26 102 21 218 -4 83 -12 146 -25 186 -70 220 -209 364 -417
432 -70 22 -101 26 -240 29 -107 2 -184 -1 -232 -10z"/>
<path d="M2240 2793 c-731 -39 -1374 -259 -1875 -642 -113 -86 -313 -279 -344
-331 -45 -75 -13 -167 65 -189 58 -16 91 1 177 94 305 329 772 590 1287 720
251 63 555 105 763 105 141 1 184 10 220 50 22 24 27 40 27 79 0 41 -5 54 -29
79 -42 42 -81 47 -291 35z"/>
<path d="M2230 1393 c-599 -47 -1063 -303 -1264 -699 -41 -82 -46 -133 -17
-180 35 -58 135 -70 178 -21 11 12 37 54 57 92 117 216 334 384 621 479 482
161 1397 106 1827 -110 258 -129 356 -286 303 -487 -37 -141 -128 -213 -286
-224 -123 -9 -234 39 -405 177 -62 49 -107 59 -157 35 -37 -17 -67 -65 -67
-107 0 -72 130 -189 308 -278 104 -52 181 -70 293 -70 352 2 569 219 569 571
0 162 -46 271 -167 400 -221 234 -637 375 -1238 419 -130 9 -451 11 -555 3z"/>
</g>
</svg>
